<svg width="140" height="31" viewBox="0 0 140 31" fill="none" xmlns="http://www.w3.org/2000/svg">
<path fill-rule="evenodd" clip-rule="evenodd" d="M71.4037 11.9251C71.0886 10.4286 70.3946 9.30633 69.3215 8.55811C68.2484 7.80989 66.9734 7.43578 65.4967 7.43578C64.2365 7.43578 63.1585 7.67206 62.2626 8.14462C61.3667 8.61718 60.6284 9.25217 60.0475 10.0496C59.4667 10.8471 59.0384 11.7577 58.7628 12.7816C58.4871 13.8055 58.3493 14.8687 58.3493 15.9714C58.3493 17.1724 58.4871 18.3095 58.7628 19.3826C59.0384 20.4557 59.4667 21.391 60.0475 22.1884C60.6284 22.9859 61.3717 23.6209 62.2774 24.0934C63.1831 24.566 64.2661 24.8023 65.5262 24.8023C66.4517 24.8023 67.2737 24.6497 67.9924 24.3445C68.7111 24.0393 69.3313 23.616 69.8531 23.0745C70.3749 22.533 70.7834 21.8882 71.0788 21.1399C71.3741 20.3917 71.5513 19.5845 71.6104 18.7181L74.4162 18.7181C74.1406 21.3762 73.225 23.4437 71.6695 24.9204C70.114 26.3972 67.9875 27.1355 65.29 27.1355C63.6557 27.1355 62.2282 26.8549 61.0074 26.2938C59.7866 25.7326 58.7726 24.9598 57.9653 23.9753C57.158 22.9908 56.5526 21.8291 56.1489 20.4902C55.7453 19.1513 55.5435 17.7139 55.5435 16.1781C55.5435 14.6423 55.76 13.2 56.1932 11.8512C56.6264 10.5025 57.2614 9.32602 58.0982 8.32183C58.935 7.31764 59.9786 6.52513 61.2289 5.94428C62.4792 5.36342 63.9117 5.073 65.5262 5.073C66.6289 5.073 67.6724 5.22067 68.6569 5.51602C69.6414 5.81137 70.5176 6.24454 71.2855 6.81555C72.0534 7.38656 72.6933 8.10031 73.2053 8.95683C73.7172 9.81334 74.052 10.8028 74.2095 11.9251H71.4037ZM80.4696 8.64672L77.9592 8.64672V5.57509L80.4696 5.57509V8.64672ZM77.9592 11.3935L80.4696 11.3935V26.663H77.9592V11.3935ZM84.6033 11.3935H86.9661V14.6128H87.0252C87.6356 13.3723 88.3838 12.4567 89.2698 11.866C90.1559 11.2753 91.2782 10.9997 92.6368 11.039V13.6972C91.6326 13.6972 90.7761 13.835 90.0673 14.1107C89.3584 14.3863 88.7874 14.79 88.3542 15.3216C87.9211 15.8532 87.606 16.4981 87.4091 17.2561C87.2122 18.0142 87.1138 18.8855 87.1138 19.87V26.663H84.6033V11.3935ZM104.686 16.2962C104.489 15.3314 104.075 14.5832 103.445 14.0516C102.815 13.52 101.969 13.2542 100.905 13.2542C99.9996 13.2542 99.2416 13.4215 98.6312 13.7562C98.0208 14.091 97.5335 14.534 97.1692 15.0853C96.8049 15.6366 96.544 16.2716 96.3865 16.9903C96.229 17.709 96.1502 18.4523 96.1502 19.2202C96.1502 19.929 96.2339 20.6182 96.4013 21.2876C96.5687 21.9571 96.8295 22.5527 97.184 23.0745C97.5384 23.5963 98.0011 24.0147 98.5721 24.3297C99.1431 24.6448 99.8224 24.8023 100.61 24.8023C101.85 24.8023 102.82 24.4774 103.519 23.8276C104.218 23.1779 104.646 22.2623 104.804 21.0809L107.373 21.0809C107.098 22.9711 106.394 24.4282 105.262 25.452C104.13 26.4759 102.589 26.9878 100.64 26.9878C99.4778 26.9878 98.449 26.8008 97.5532 26.4267C96.6573 26.0526 95.909 25.521 95.3085 24.8318C94.708 24.1427 94.2551 23.3206 93.9499 22.3656C93.6447 21.4107 93.4921 20.3622 93.4921 19.2202C93.4921 18.0782 93.6398 17.01 93.9351 16.0157C94.2305 15.0213 94.6784 14.155 95.279 13.4166C95.8795 12.6782 96.6326 12.0974 97.5384 11.674C98.4441 11.2507 99.4975 11.039 100.699 11.039C101.565 11.039 102.377 11.1424 103.135 11.3492C103.893 11.5559 104.563 11.8759 105.144 12.309C105.724 12.7422 106.202 13.2886 106.576 13.9482C106.95 14.6078 107.186 15.3905 107.285 16.2962H104.686ZM123.144 26.663L120.781 26.663V24.2411H120.722C120.19 25.1862 119.511 25.8803 118.684 26.3233C117.857 26.7663 116.882 26.9878 115.76 26.9878C114.756 26.9878 113.919 26.8549 113.25 26.5891C112.58 26.3233 112.039 25.9443 111.625 25.452C111.212 24.9598 110.921 24.374 110.754 23.6947C110.587 23.0154 110.503 22.2623 110.503 21.4353V11.3935H113.013V21.7306C113.013 22.6758 113.289 23.424 113.84 23.9753C114.392 24.5266 115.15 24.8023 116.115 24.8023C116.882 24.8023 117.547 24.6841 118.108 24.4478C118.669 24.2116 119.137 23.8768 119.511 23.4437C119.885 23.0105 120.166 22.5035 120.353 21.9226C120.54 21.3418 120.633 20.7068 120.633 20.0176V11.3935L123.144 11.3935V26.663ZM128.784 21.8488C128.803 22.4001 128.931 22.8677 129.168 23.2517C129.404 23.6356 129.714 23.9408 130.098 24.1673C130.482 24.3937 130.915 24.5561 131.398 24.6546C131.88 24.753 132.377 24.8023 132.889 24.8023C133.283 24.8023 133.696 24.7727 134.13 24.7137C134.563 24.6546 134.961 24.5463 135.326 24.3888C135.69 24.2313 135.99 23.9999 136.227 23.6947C136.463 23.3895 136.581 23.0006 136.581 22.5281C136.581 21.8783 136.335 21.3861 135.843 21.0513C135.35 20.7166 134.735 20.4459 133.997 20.2391C133.258 20.0324 132.456 19.8453 131.59 19.678C130.723 19.5106 129.921 19.2743 129.182 18.9691C128.444 18.6639 127.829 18.2357 127.337 17.6844C126.844 17.1331 126.598 16.3652 126.598 15.3807C126.598 14.6127 126.77 13.9531 127.115 13.4018C127.46 12.8505 127.903 12.4026 128.444 12.058C128.986 11.7134 129.596 11.4574 130.275 11.2901C130.955 11.1227 131.629 11.039 132.298 11.039C133.165 11.039 133.962 11.1129 134.691 11.2605C135.419 11.4082 136.064 11.6642 136.625 12.0285C137.186 12.3927 137.634 12.885 137.969 13.5052C138.304 14.1254 138.501 14.8983 138.56 15.8237H136.049C136.01 15.3314 135.882 14.9229 135.665 14.598C135.449 14.2731 135.173 14.0122 134.838 13.8153C134.504 13.6184 134.135 13.4757 133.731 13.3871C133.327 13.2985 132.919 13.2542 132.505 13.2542C132.131 13.2542 131.752 13.2837 131.368 13.3428C130.984 13.4018 130.635 13.5052 130.32 13.6529C130.005 13.8005 129.749 13.9974 129.552 14.2436C129.355 14.4897 129.256 14.8096 129.256 15.2034C129.256 15.6366 129.409 15.996 129.714 16.2815C130.019 16.567 130.408 16.8033 130.881 16.9903C131.353 17.1774 131.885 17.3349 132.476 17.4629C133.066 17.5908 133.657 17.7238 134.248 17.8616C134.878 17.9994 135.493 18.1668 136.094 18.3637C136.694 18.5606 137.226 18.8215 137.689 19.1463C138.151 19.4712 138.525 19.8798 138.811 20.372C139.096 20.8643 139.239 21.4747 139.239 22.2032C139.239 23.1286 139.047 23.8965 138.663 24.5069C138.279 25.1173 137.777 25.6096 137.157 25.9837C136.537 26.3578 135.838 26.6187 135.06 26.7663C134.282 26.914 133.509 26.9878 132.741 26.9878C131.895 26.9878 131.088 26.8992 130.32 26.722C129.552 26.5448 128.872 26.2544 128.282 25.8508C127.691 25.4471 127.218 24.9155 126.864 24.2559C126.51 23.5963 126.313 22.7939 126.273 21.8488H128.784Z" fill="white"/>
<path fill-rule="evenodd" clip-rule="evenodd" d="M11.4029 17.0948H35.7708V14.3556H11.4029V17.0948ZM43.3748 17.7582C43.3748 22.9215 38.593 26.6513 34.1478 26.6513H13.0258C8.58059 26.6513 3.79882 22.9215 3.79882 17.7582C3.77445 17.1465 3.77445 14.3039 3.79882 13.6921C3.79882 8.52889 8.58059 4.7991 13.0258 4.7991H34.1478C38.593 4.7991 43.3748 8.52889 43.3748 13.6921C43.3992 14.3039 43.3992 17.1465 43.3748 17.7582ZM46.3809 13.5308C46.3809 7.4515 40.8773 2.02954 34.1478 2.02954H13.0258C6.29632 2.02954 0.792722 7.4515 0.792722 13.5308C0.750082 14.3267 0.750082 17.1237 0.792722 17.9195C0.792722 24.0004 6.29632 29.4208 13.0258 29.4208H34.1478C40.8773 29.4208 46.3809 24.0004 46.3809 17.9195C46.4236 17.1237 46.4236 14.3267 46.3809 13.5308Z" fill="white"/>
</svg>
