<svg width="140" height="33" viewBox="0 0 140 33" fill="none" xmlns="http://www.w3.org/2000/svg">
<path fill-rule="evenodd" clip-rule="evenodd" d="M71.4037 12.7642C71.0886 11.2153 70.3946 10.0536 69.3215 9.27918C68.2484 8.50472 66.9734 8.1175 65.4967 8.1175C64.2365 8.1175 63.1585 8.36206 62.2626 8.85119C61.3667 9.34032 60.6284 9.99758 60.0475 10.823C59.4667 11.6484 59.0384 12.591 58.7628 13.6507C58.4871 14.7105 58.3493 15.811 58.3493 16.9523C58.3493 18.1955 58.4871 19.3725 58.7628 20.4832C59.0384 21.5939 59.4667 22.562 60.0475 23.3874C60.6284 24.2128 61.3717 24.8701 62.2774 25.3592C63.1831 25.8483 64.2661 26.0929 65.5262 26.0929C66.4517 26.0929 67.2737 25.9349 67.9924 25.619C68.7111 25.3031 69.3313 24.865 69.8531 24.3045C70.3749 23.744 70.7834 23.0766 71.0788 22.3021C71.3741 21.5277 71.5513 20.6921 71.6104 19.7954L74.4162 19.7954C74.1406 22.5467 73.225 24.6866 71.6695 26.2152C70.114 27.7437 67.9875 28.5079 65.29 28.5079C63.6557 28.5079 62.2282 28.2175 61.0074 27.6367C59.7866 27.0558 58.7726 26.2559 57.9653 25.2369C57.158 24.2179 56.5526 23.0155 56.1489 21.6296C55.7453 20.2437 55.5435 18.756 55.5435 17.1663C55.5435 15.5767 55.76 14.0838 56.1932 12.6878C56.6264 11.2917 57.2614 10.074 58.0982 9.03461C58.935 7.99522 59.9786 7.17492 61.2289 6.5737C62.4792 5.97248 63.9117 5.67188 65.5262 5.67188C66.6289 5.67188 67.6724 5.82473 68.6569 6.13043C69.6414 6.43614 70.5176 6.8845 71.2855 7.47553C72.0534 8.06656 72.6933 8.80533 73.2053 9.69188C73.7172 10.5784 74.052 11.6025 74.2095 12.7642H71.4037ZM80.4696 9.37089L77.9592 9.37089V6.19157L80.4696 6.19157V9.37089ZM77.9592 12.2139L80.4696 12.2139V28.0188H77.9592V12.2139ZM84.6033 12.2139H86.9661V15.5461H87.0252C87.6356 14.2621 88.3838 13.3145 89.2698 12.7031C90.1559 12.0916 91.2782 11.8063 92.6368 11.8471V14.5984C91.6326 14.5984 90.7761 14.7411 90.0673 15.0264C89.3584 15.3117 88.7874 15.7295 88.3542 16.2798C87.9211 16.8301 87.606 17.4975 87.4091 18.2821C87.2122 19.0668 87.1138 19.9686 87.1138 20.9876V28.0188H84.6033V12.2139ZM104.686 17.2886C104.489 16.29 104.075 15.5155 103.445 14.9653C102.815 14.415 101.969 14.1399 100.905 14.1399C99.9996 14.1399 99.2416 14.3131 98.6312 14.6596C98.0208 15.006 97.5335 15.4646 97.1692 16.0352C96.8049 16.6059 96.544 17.2631 96.3865 18.007C96.229 18.7509 96.1502 19.5202 96.1502 20.3151C96.1502 21.0488 96.2339 21.7621 96.4013 22.455C96.5687 23.1479 96.8295 23.7644 97.184 24.3045C97.5384 24.8446 98.0011 25.2777 98.5721 25.6037C99.1431 25.9298 99.8224 26.0929 100.61 26.0929C101.85 26.0929 102.82 25.7566 103.519 25.0841C104.218 24.4115 104.646 23.4638 104.804 22.241H107.373C107.098 24.1975 106.394 25.7056 105.262 26.7654C104.13 27.8252 102.589 28.3551 100.64 28.3551C99.4778 28.3551 98.449 28.1615 97.5532 27.7742C96.6573 27.387 95.909 26.8368 95.3085 26.1234C94.708 25.4101 94.2551 24.5593 93.9499 23.5708C93.6447 22.5824 93.4921 21.4971 93.4921 20.3151C93.4921 19.133 93.6398 18.0274 93.9351 16.9982C94.2305 15.969 94.6784 15.0723 95.279 14.308C95.8795 13.5437 96.6326 12.9425 97.5384 12.5044C98.4441 12.0662 99.4975 11.8471 100.699 11.8471C101.565 11.8471 102.377 11.9541 103.135 12.1681C103.893 12.3821 104.563 12.7132 105.144 13.1616C105.724 13.61 106.202 14.1755 106.576 14.8583C106.95 15.541 107.186 16.3511 107.285 17.2886H104.686ZM123.144 28.0188H120.781V25.512H120.722C120.19 26.4903 119.511 27.2087 118.684 27.6672C117.857 28.1258 116.882 28.3551 115.76 28.3551C114.756 28.3551 113.919 28.2175 113.25 27.9424C112.58 27.6672 112.039 27.2749 111.625 26.7654C111.212 26.2559 110.921 25.6496 110.754 24.9465C110.587 24.2434 110.503 23.4638 110.503 22.6079V12.2139H113.013V22.9136C113.013 23.8918 113.289 24.6663 113.84 25.2369C114.392 25.8076 115.15 26.0929 116.115 26.0929C116.882 26.0929 117.547 25.9706 118.108 25.726C118.669 25.4815 119.137 25.135 119.511 24.6866C119.885 24.2383 120.166 23.7135 120.353 23.1123C120.54 22.511 120.633 21.8538 120.633 21.1405V12.2139H123.144V28.0188ZM128.784 23.0358C128.803 23.6065 128.931 24.0905 129.168 24.4879C129.404 24.8853 129.714 25.2012 130.098 25.4356C130.482 25.67 130.915 25.8381 131.398 25.94C131.88 26.0419 132.377 26.0929 132.889 26.0929C133.283 26.0929 133.696 26.0623 134.13 26.0012C134.563 25.94 134.961 25.8279 135.326 25.6649C135.69 25.5018 135.99 25.2624 136.227 24.9465C136.463 24.6306 136.581 24.2281 136.581 23.739C136.581 23.0664 136.335 22.5569 135.843 22.2104C135.35 21.864 134.735 21.5837 133.997 21.3698C133.258 21.1558 132.456 20.9622 131.59 20.7889C130.723 20.6157 129.921 20.3711 129.182 20.0552C128.444 19.7393 127.829 19.2961 127.337 18.7254C126.844 18.1548 126.598 17.3599 126.598 16.3409C126.598 15.5461 126.77 14.8634 127.115 14.2927C127.46 13.7221 127.903 13.2584 128.444 12.9018C128.986 12.5451 129.596 12.2802 130.275 12.1069C130.955 11.9337 131.629 11.8471 132.298 11.8471C133.165 11.8471 133.962 11.9235 134.691 12.0764C135.419 12.2292 136.064 12.4942 136.625 12.8712C137.186 13.2482 137.634 13.7577 137.969 14.3997C138.304 15.0417 138.501 15.8416 138.56 16.7995H136.049C136.01 16.29 135.882 15.8671 135.665 15.5308C135.449 15.1945 135.173 14.9245 134.838 14.7207C134.504 14.5169 134.135 14.3691 133.731 14.2774C133.327 14.1857 132.919 14.1399 132.505 14.1399C132.131 14.1399 131.752 14.1704 131.368 14.2316C130.984 14.2927 130.635 14.3997 130.32 14.5526C130.005 14.7054 129.749 14.9092 129.552 15.164C129.355 15.4187 129.256 15.7499 129.256 16.1575C129.256 16.6059 129.409 16.9778 129.714 17.2733C130.019 17.5688 130.408 17.8134 130.881 18.007C131.353 18.2006 131.885 18.3637 132.476 18.4961C133.066 18.6286 133.657 18.7662 134.248 18.9088C134.878 19.0515 135.493 19.2247 136.094 19.4285C136.694 19.6323 137.226 19.9024 137.689 20.2387C138.151 20.5749 138.525 20.9978 138.811 21.5073C139.096 22.0168 139.239 22.6486 139.239 23.4027C139.239 24.3606 139.047 25.1554 138.663 25.7872C138.279 26.419 137.777 26.9285 137.157 27.3157C136.537 27.7029 135.838 27.9729 135.06 28.1258C134.282 28.2787 133.509 28.3551 132.741 28.3551C131.895 28.3551 131.088 28.2634 130.32 28.0799C129.552 27.8965 128.872 27.5959 128.282 27.1781C127.691 26.7603 127.218 26.2101 126.864 25.5273C126.51 24.8446 126.313 24.0141 126.273 23.0358H128.784Z" fill="#2D293C"/>
<path fill-rule="evenodd" clip-rule="evenodd" d="M11.4029 18.1151H35.7708V15.28H11.4029V18.1151ZM43.3748 18.8019C43.3748 24.1462 38.593 28.0067 34.1478 28.0067H13.0258C8.58059 28.0067 3.79882 24.1462 3.79882 18.8019C3.77445 18.1687 3.77445 15.2264 3.79882 14.5932C3.79882 9.24895 8.58059 5.38839 13.0258 5.38839H34.1478C38.593 5.38839 43.3748 9.24895 43.3748 14.5932C43.3992 15.2264 43.3992 18.1687 43.3748 18.8019ZM46.3809 14.4263C46.3809 8.13378 40.8773 2.52173 34.1478 2.52173H13.0258C6.29632 2.52173 0.792722 8.13378 0.792722 14.4263C0.750082 15.2501 0.750082 18.1451 0.792722 18.9688C0.792722 25.2629 6.29632 30.8734 13.0258 30.8734H34.1478C40.8773 30.8734 46.3809 25.2629 46.3809 18.9688C46.4236 18.1451 46.4236 15.2501 46.3809 14.4263Z" fill="#2D293C"/>
</svg>
