<svg width="387" height="517" viewBox="0 0 387 517" fill="none" xmlns="http://www.w3.org/2000/svg">
<path fill-rule="evenodd" clip-rule="evenodd" d="M322.024 517C357.455 517 386.178 487.996 386.178 452.218C386.178 416.44 357.455 387.436 322.024 387.436C286.593 387.436 257.871 416.44 257.871 452.218C257.871 487.996 286.593 517 322.024 517Z" fill="#CADFFF"/>
<path fill-rule="evenodd" clip-rule="evenodd" d="M128.936 387.436C57.7272 387.436 6.10352e-05 445.444 6.10352e-05 517L257.871 517C257.871 445.444 200.144 387.436 128.936 387.436Z" fill="#B9E9E4"/>
<path fill-rule="evenodd" clip-rule="evenodd" d="M128.936 259.129C57.7272 259.129 6.10352e-05 317.138 6.10352e-05 388.693L257.871 388.693C257.871 317.138 200.144 259.129 128.936 259.129Z" fill="#CADFFF"/>
<path fill-rule="evenodd" clip-rule="evenodd" d="M386.178 0L0 0L0 258.29L257.452 258.29L386.177 387.436L386.178 258.29L386.178 0Z" fill="#F5C8CD"/>
</svg>
