<svg width="40" height="56" viewBox="0 0 40 56" fill="none" xmlns="http://www.w3.org/2000/svg">
<path fill-rule="evenodd" clip-rule="evenodd" d="M33.3327 56.0002C37.0145 56.0002 39.9993 52.8662 39.9993 49.0002C39.9993 45.1343 37.0145 42.0002 33.3327 42.0002C29.6508 42.0002 26.666 45.1343 26.666 49.0002C26.666 52.8662 29.6508 56.0002 33.3327 56.0002Z" fill="#CADFFF"/>
<path fill-rule="evenodd" clip-rule="evenodd" d="M13.3327 42.0002C5.96903 42.0002 -0.000556946 48.2683 -0.000556946 56.0002H26.666C26.666 48.2683 20.6964 42.0002 13.3327 42.0002Z" fill="#F5C8CD"/>
<path fill-rule="evenodd" clip-rule="evenodd" d="M13.3327 28.0002C5.96903 28.0002 -0.000556946 34.2683 -0.000556946 42.0002H26.666C26.666 34.2683 20.6964 28.0002 13.3327 28.0002Z" fill="#CADFFF"/>
<path fill-rule="evenodd" clip-rule="evenodd" d="M39.9999 0H0V28H26.6682L26.6659 28.0002L39.9992 42.0002V28H39.9999V0Z" fill="#FFF6C1"/>
</svg>


