<svg width="45" height="49" viewBox="0 0 45 49" fill="none" xmlns="http://www.w3.org/2000/svg">
<mask id="mask0" mask-type="alpha" maskUnits="userSpaceOnUse" x="0" y="0" width="45" height="49">
<path fill-rule="evenodd" clip-rule="evenodd" d="M0 0.889893H44.2314V48.0171H0V0.889893Z" fill="white"/>
</mask>
<g mask="url(#mask0)">
<path d="M20.7247 47.6646L1.52715 37.2633C0.586093 36.7534 0 35.7697 0 34.7V14.207C0 13.1374 0.586093 12.1536 1.52715 11.6438L20.7247 1.24248C21.5923 0.772362 22.639 0.772362 23.5066 1.24248L42.7042 11.6438C43.6453 12.1536 44.2314 13.1374 44.2314 14.207V34.7C44.2314 35.7697 43.6453 36.7534 42.7042 37.2633L23.5066 47.6646C22.639 48.1347 21.5923 48.1347 20.7247 47.6646Z" fill="white"/>
</g>
<path fill-rule="evenodd" clip-rule="evenodd" d="M11.9101 24.3611V15.8529C12.6664 15.718 13.7044 15.6172 14.7501 15.6172C16.6797 15.6172 18.2562 15.9949 18.2562 18.3345C18.2562 19.8664 17.6082 20.5865 16.5819 20.8945L18.575 24.3611H16.5366L14.7456 21.0957C14.3893 21.0957 13.9861 21.076 13.6778 21.0573V24.3611H11.9101ZM8.24707 24.3612H10.0225V15.7061H8.24707V24.3612ZM13.7772 19.6725H13.7541L13.7509 19.6715C13.7624 19.6722 13.7722 19.6724 13.777 19.6725L13.7772 19.6725ZM13.796 19.6746L13.7772 19.6725H13.78L13.777 19.6725L13.7483 19.6693H13.7527L13.7544 19.6695C13.767 19.6699 13.7776 19.6711 13.7869 19.6727L13.787 19.6727L13.7891 19.6729L13.7913 19.6734L13.796 19.6746ZM13.7966 19.6747L13.796 19.6746L13.7963 19.6746L13.7963 19.6746L13.8145 19.679L13.8245 19.6854C13.8245 19.6854 13.8245 19.683 13.8224 19.6807L13.8316 19.6826L13.8223 19.6806C13.8205 19.6787 13.8173 19.677 13.8115 19.677L13.8138 19.6785L13.8073 19.6769L13.7977 19.6747L13.8143 19.6753L13.8181 19.6755L13.8404 19.6775C13.8656 19.6803 13.8873 19.6844 13.9039 19.6876C13.9174 19.6902 13.9274 19.6921 13.9331 19.6921C13.9331 19.6921 13.8976 19.6837 13.8525 19.6785C14.1542 19.7038 14.4532 19.7059 14.7578 19.7059C15.8559 19.7059 16.5034 19.4291 16.5034 18.3269C16.5034 17.3711 16.0697 16.988 14.7947 16.988C14.4479 16.988 14.0396 17.0149 13.6777 17.0609V19.662H13.6833H13.6882C13.6893 19.6637 13.6916 19.6637 13.6916 19.6637L13.6893 19.662C13.6916 19.6637 13.696 19.6637 13.696 19.6637H13.6977L13.7014 19.6641L13.7025 19.6645C13.7235 19.6725 13.7276 19.6725 13.7276 19.6725H13.7541L13.7445 19.671L13.7509 19.6715L13.7441 19.6693H13.7483L13.7253 19.6668L13.7247 19.6664L13.7527 19.6693H13.7749L13.7891 19.6729L13.8164 19.6754L13.7913 19.6734L13.7966 19.6747ZM13.8141 19.6787L13.7966 19.6747L13.7963 19.6746L13.8142 19.6787L13.8145 19.679L13.8224 19.6807L13.8223 19.6806L13.8153 19.6788L13.8138 19.6785L13.8141 19.6787ZM13.8141 19.6787L13.8223 19.6806L13.8142 19.6787L13.8141 19.6787ZM13.7218 19.6664L13.7253 19.6668L13.7275 19.668L13.7254 19.6674L13.7218 19.6664ZM13.7073 19.6648L13.7076 19.6648L13.7137 19.6653C13.717 19.6653 13.7193 19.6657 13.7218 19.6664L13.7073 19.6648ZM13.7029 19.6646L13.7073 19.6648L13.7014 19.6641L13.7012 19.664L13.7014 19.6641L13.7014 19.6641L13.7029 19.6646ZM13.7032 19.6646L13.7025 19.6645L13.7029 19.6646L13.7032 19.6646ZM13.7445 19.671L13.7032 19.6646C13.7147 19.668 13.7303 19.6699 13.7445 19.671ZM13.8164 19.6754C13.8288 19.6761 13.8409 19.6772 13.8525 19.6785L13.8404 19.6775C13.8332 19.6767 13.8258 19.676 13.8181 19.6755L13.8164 19.6754ZM13.8164 19.6754L13.8143 19.6753C13.8088 19.675 13.8033 19.6748 13.7976 19.6747L13.7976 19.6747C13.8039 19.6748 13.8101 19.675 13.8164 19.6754ZM21.4629 20.0342C21.4629 18.2682 21.4999 17.0609 23.1561 17.0609C24.8056 17.0609 24.8459 18.2682 24.8459 20.0342C24.8459 21.7984 24.8056 23.0013 23.1561 23.0013C21.4999 23.0013 21.4629 21.7984 21.4629 20.0342ZM23.1562 24.4504C20.4405 24.4504 19.6639 23.1685 19.6639 20.0341C19.6639 16.8986 20.4405 15.6172 23.1562 15.6172C25.8674 15.6172 26.6431 16.8986 26.6431 20.0341C26.6431 23.1685 25.8674 24.4504 23.1562 24.4504ZM28.3019 16.9331V24.3611H29.8934V17.9893L32.6627 23.3088C33.1118 24.1698 33.5212 24.4504 34.1708 24.4504C34.8497 24.4504 35.2381 24.0509 35.2381 23.1306V15.706H33.6482V22.0526L30.8767 16.7533C30.4387 15.9186 29.9796 15.6172 29.3736 15.6172C28.7047 15.6172 28.3019 16.0101 28.3019 16.9331ZM13.5139 29.5273V25.8929H14.1967V33.9443H13.5139V30.114H8.93142V33.9443H8.24707V25.8929H8.93142V29.5273H13.5139ZM34.2582 25.8929L30.504 29.6234V25.8929H29.8213V33.9443H30.504V29.9895L34.3296 33.9443H35.2379L31.1933 29.7839L35.1298 25.8929H34.2582ZM20.742 30.993L19.1319 26.7161L17.5132 30.993H20.742ZM18.6476 26.2685L15.6914 33.9441H16.3926L17.2951 31.5545H20.9545L21.8575 33.9441H22.5867L19.6658 26.2685C19.5505 25.9657 19.3909 25.809 19.1518 25.809C18.9159 25.809 18.766 25.9609 18.6476 26.2685ZM26.5125 34.0263C23.9085 34.0263 23.2793 32.7756 23.2793 29.9185C23.2793 27.0559 23.9123 25.809 26.5125 25.809C27.1676 25.809 27.7768 25.8702 28.2849 25.9679L28.2189 26.5288C27.8017 26.4649 27.3077 26.4 26.8695 26.4C24.2548 26.4 23.974 27.5604 23.974 29.9185C23.974 32.2813 24.3089 33.4358 26.8695 33.4358C27.3169 33.4358 27.7611 33.3752 28.2036 33.3149L28.2215 33.3124L28.2849 33.8561C27.7768 33.9543 27.1844 34.0263 26.5125 34.0263Z" fill="#32C3FF"/>
</svg>
