<svg width="40" height="57" viewBox="0 0 40 57" fill="none" xmlns="http://www.w3.org/2000/svg">
<path fill-rule="evenodd" clip-rule="evenodd" d="M33.3327 56.8508C37.0145 56.8508 39.9993 53.7168 39.9993 49.8508C39.9993 45.9848 37.0145 42.8508 33.3327 42.8508C29.6508 42.8508 26.666 45.9848 26.666 49.8508C26.666 53.7168 29.6508 56.8508 33.3327 56.8508Z" fill="#CADFFF"/>
<path fill-rule="evenodd" clip-rule="evenodd" d="M13.3327 42.8509C5.96903 42.8509 -0.000556946 49.119 -0.000556946 56.8508H26.666C26.666 49.119 20.6964 42.8509 13.3327 42.8509Z" fill="#F5C8CD"/>
<path fill-rule="evenodd" clip-rule="evenodd" d="M13.3327 28.8509C5.96903 28.8509 -0.000556946 35.119 -0.000556946 42.8508H26.666C26.666 35.119 20.6964 28.8509 13.3327 28.8509Z" fill="#CADFFF"/>
<path fill-rule="evenodd" clip-rule="evenodd" d="M39.9999 0.85083H0V28.8507H26.6688L26.6665 28.8509L39.9998 42.8508V28.8507H39.9999V0.85083Z" fill="#FFF6C1"/>
</svg>
