<svg width="40" height="57" viewBox="0 0 40 57" fill="none" xmlns="http://www.w3.org/2000/svg">
<path fill-rule="evenodd" clip-rule="evenodd" d="M13.3041 42.276C20.6515 42.276 26.6078 36.008 26.6078 28.2761C26.6078 20.5441 20.6515 14.2761 13.3041 14.2761C5.95673 14.2761 0.000488281 20.5441 0.000488281 28.2761C0.000488281 36.008 5.95673 42.276 13.3041 42.276Z" fill="#CADFFF"/>
<path fill-rule="evenodd" clip-rule="evenodd" d="M33.2592 56.2761C36.9329 56.2761 39.9111 53.1421 39.9111 49.2761C39.9111 45.4101 36.9329 42.2761 33.2592 42.2761C29.5855 42.2761 26.6074 45.4101 26.6074 49.2761C26.6074 53.1421 29.5855 56.2761 33.2592 56.2761Z" fill="#CADFFF"/>
<path fill-rule="evenodd" clip-rule="evenodd" d="M6.65182 14.2761C10.3255 14.2761 13.3036 11.1421 13.3036 7.2761C13.3036 3.41012 10.3255 0.276123 6.65182 0.276123C2.97812 0.276123 0 3.41012 0 7.2761C0 11.1421 2.97812 14.2761 6.65182 14.2761Z" fill="#FFF6C1"/>
<rect x="26.6074" y="56.2761" width="26.6073" height="14" transform="rotate(-180 26.6074 56.2761)" fill="#F5C8CD"/>
<rect x="39.9111" y="14.2761" width="26.6073" height="14" transform="rotate(-180 39.9111 14.2761)" fill="#F5C8CD"/>
<path fill-rule="evenodd" clip-rule="evenodd" d="M40.0001 28.2763C40.0001 20.6462 33.9643 14.4606 26.519 14.4606V42.092C33.9643 42.092 40.0001 35.9064 40.0001 28.2763Z" fill="#FFF6C1"/>
</svg>
